<svg width="117" height="133" viewBox="0 0 117 133" xmlns="http://www.w3.org/2000/svg"><g transform="translate(0 .609)" fill="#4F46E5"><ellipse transform="rotate(105.3 58.256 11.04)" cx="58.256" cy="11.04" rx="9.021" ry="8.86"/><path d="M87.617 21.295c-4.681-3.728-9.325-5.257-14.682-7.569a2.215 2.215 0 0 1-1.285-2.554c1.35-5.584 17.853 5.239 20.095 6.963 2.308 1.771 1.463 4.829-1.586 4.27-.988-.18-1.835-.55-2.542-1.11ZM23.87 20.036c1.803-3.456 16.355-10.542 20.057-9.658.37.09.643.304.82.643.497.96.468 1.927-.085 2.9a1.31 1.31 0 0 1-.754.604 57.241 57.241 0 0 0-15.868 7.873c-.85.605-2.176 1.008-3.054.662a2.164 2.164 0 0 1-1.226-1.26 2.182 2.182 0 0 1 .11-1.763Z"/><circle cx="13.244" cy="32.136" r="8.948"/><circle cx="103.801" cy="31.778" r="8.59"/><path d="m68.13 57.176 11.057-8.41a.721.721 0 0 0 .294-.726c-.606-3.72.397-6.49 3.01-8.306C86.61 36.868 92.375 38 94.486 42.77c.979 2.2.966 4.346-.038 6.44-2.14 4.44-7.147 5.864-11.569 3.573a1.311 1.311 0 0 0-1.372.113l-10.755 7.807c-.246.176-.319.405-.218.688 1.389 3.771 1.426 7.558.114 11.361-.127.365-.032.657.284.877l10.035 6.967c.328.229.764.24 1.108.029 3.13-1.936 6.166-2.153 9.107-.65 6.873 3.525 3.872 14.123-3.219 14.764-5.964.528-9.41-4.186-8.568-9.89a.584.584 0 0 0-.255-.566l-10.954-7.175a.475.475 0 0 0-.625.085c-1.824 2.143-4.127 3.429-6.91 3.856-.348.057-.525.26-.53.613l-.105 10.446c-.006.32.142.544.445.67 3.452 1.464 5.257 3.8 5.415 7.005.625 12.71-17.988 10.39-15.498-.867.594-2.678 2.332-4.636 5.217-5.874.423-.183.696-.603.69-1.066l-.047-10.418c0-.333-.164-.515-.492-.547-3.004-.301-5.58-1.515-7.725-3.64a.55.55 0 0 0-.691-.056l-9.846 6.93a.593.593 0 0 0-.237.556c.865 6.028-1.587 9.36-7.356 9.994-7.82.868-11.37-10.729-4.497-14.717 2.68-1.556 6.58-.934 9.287.745.28.175.637.164.9-.029l9.372-6.684c.524-.377.657-.861.398-1.452-1.565-3.59-1.619-7.22-.16-10.89a1.57 1.57 0 0 0-.55-1.857l-10.206-7.279a.7.7 0 0 0-.776-.057c-5.576 2.952-11.152.594-12.08-5.543-.385-2.565.312-4.746 2.092-6.544 3.531-3.582 8.87-2.743 12.1.726 1.912 2.056 1.75 4.422 1.202 6.987a.706.706 0 0 0 .255.697l10.689 8.373a.627.627 0 0 0 .823-.038c1.957-1.848 4.28-2.948 6.968-3.3a.548.548 0 0 0 .474-.547l-.142-10.37a.824.824 0 0 0-.502-.783c-4.79-2.307-6.574-5.61-5.35-9.91.676-2.37 1.942-4.091 3.797-5.166 3.285-1.905 8.71-1.509 10.566 2.451 2.682 5.714 1.36 9.938-3.967 12.672a.59.59 0 0 0-.34.556l-.058 10.362c0 .358.174.587.521.688a19.933 19.933 0 0 1 6.56 3.29c.291.22.578.22.862 0Zm-6.557-22.052c.462-1.716-.667-3.507-2.52-4.001-1.854-.495-3.73.494-4.192 2.21-.461 1.715.667 3.506 2.52 4 1.854.495 3.73-.494 4.192-2.21ZM32.29 46.327a3.039 3.039 0 0 0-.567-2.359 3.464 3.464 0 0 0-2.167-1.326c-1.82-.33-3.55.786-3.86 2.492-.15.819.054 1.668.566 2.359a3.464 3.464 0 0 0 2.167 1.327c1.821.33 3.55-.787 3.861-2.493Zm58.23-.568c0-.88-.35-1.725-.976-2.347a3.34 3.34 0 0 0-2.356-.972 3.326 3.326 0 0 0-3.332 3.319 3.326 3.326 0 0 0 3.332 3.319 3.34 3.34 0 0 0 2.356-.972 3.312 3.312 0 0 0 .976-2.347Zm-23.97 21.77c0-4.754-3.87-8.608-8.644-8.608a8.662 8.662 0 0 0-6.112 2.521 8.59 8.59 0 0 0-2.532 6.087 8.59 8.59 0 0 0 2.532 6.087 8.662 8.662 0 0 0 6.112 2.52c4.773 0 8.643-3.853 8.643-8.607ZM32.354 87.953c.721-1.635-.107-3.578-1.85-4.34s-3.74-.054-4.46 1.581c-.721 1.636.107 3.58 1.85 4.341 1.742.762 3.74.054 4.46-1.582Zm58.05-1.257a3.363 3.363 0 0 0-3.37-3.356c-.893 0-1.75.354-2.383.983a3.35 3.35 0 0 0-.987 2.373 3.363 3.363 0 0 0 3.37 3.357 3.363 3.363 0 0 0 3.37-3.357Zm-29.21 15.058a2.892 2.892 0 0 0-.016-2.339 3.424 3.424 0 0 0-1.768-1.742c-1.66-.73-3.553-.084-4.228 1.44a2.892 2.892 0 0 0 .016 2.339c.334.765.97 1.392 1.767 1.742 1.66.73 3.553.084 4.228-1.44ZM7.524 50.346c-3.785 11.346-3.775 22.69.03 34.036.6 1.79 1.06 3.124-.874 4.371a1.856 1.856 0 0 1-1.566.208 1.783 1.783 0 0 1-1.136-1.065c-5.284-14.024-5.304-27.957-.059-41.797 1.474-3.866 5.383-1.914 4.558 1.105a61.344 61.344 0 0 1-.953 3.142ZM108.309 86.74a1.357 1.357 0 0 1-.077-1.129c4.682-12.602 4.746-25.255.192-37.959-.643-1.792-.47-3.547 1.708-3.699 2.043-.142 3.243 2.609 3.722 4.202 3.922 12.855 3.771 25.657-.45 38.404-.806 2.429-3.963 2.239-5.095.18Z"/><circle cx="13.244" cy="101.576" r="8.948"/><circle cx="103.801" cy="101.218" r="8.59"/><path d="M72.828 120.359c6.463-2.132 11.327-4.497 16.687-8.659a2.168 2.168 0 0 1 3.161.54c3.134 4.925-13.712 10.707-16.668 11.405-1.656.391-3.47 1.201-4.303-.94a1.79 1.79 0 0 1 .057-1.412c.212-.443.597-.78 1.066-.934Zm-39.068.425c-2.227-.806-12.52-5.137-9.628-8.792a1.98 1.98 0 0 1 2.677-.403c5.379 3.724 11.073 6.66 17.084 8.81 1.215.431 1.512 1.453.893 3.065a.816.816 0 0 1-.498.497c-2.414.918-8.059-2.268-10.529-3.177Z"/><circle cx="57.985" cy="123.41" r="8.59"/></g></svg>